<svg width="220" height="130" viewBox="0 0 220 130" xmlns="http://www.w3.org/2000/svg" role="img" aria-label="Solar harvester device">
  <defs>
    <linearGradient id="panel" x1="0" y1="0" x2="1" y2="1">
      <stop offset="0%" stop-color="#3f7ec2"/>
      <stop offset="100%" stop-color="#16395e"/>
    </linearGradient>
  </defs>
  <circle cx="38" cy="32" r="16" fill="#ffd55f"/>
  <g stroke="#ffd55f" stroke-width="2">
    <line x1="38" y1="8" x2="38" y2="0"/>
    <line x1="38" y1="64" x2="38" y2="56"/>
    <line x1="14" y1="32" x2="6" y2="32"/>
    <line x1="70" y1="32" x2="62" y2="32"/>
  </g>
  <polygon points="60,32 185,32 172,98 47,98" fill="url(#panel)" stroke="#88b8e8" stroke-width="3"/>
  <g stroke="#9ad0ff" stroke-width="1.5">
    <line x1="78" y1="32" x2="66" y2="98"/>
    <line x1="100" y1="32" x2="88" y2="98"/>
    <line x1="122" y1="32" x2="110" y2="98"/>
    <line x1="144" y1="32" x2="132" y2="98"/>
    <line x1="166" y1="32" x2="154" y2="98"/>
    <line x1="57" y1="49" x2="181" y2="49"/>
    <line x1="53" y1="66" x2="177" y2="66"/>
    <line x1="50" y1="83" x2="174" y2="83"/>
  </g>
  <rect x="104" y="98" width="14" height="20" fill="#62748a"/>
  <rect x="88" y="118" width="46" height="7" rx="3" fill="#909fb0"/>
</svg>
